<?xml version="1.0" encoding="UTF-8" standalone="no"?>
<!DOCTYPE svg PUBLIC "-//W3C//DTD SVG 1.1//EN" "http://www.w3.org/Graphics/SVG/1.1/DTD/svg11.dtd">
<svg width="100%" height="100%" viewBox="0 0 512 512" version="1.1" xmlns="http://www.w3.org/2000/svg" xmlns:xlink="http://www.w3.org/1999/xlink" xml:space="preserve" xmlns:serif="http://www.serif.com/" style="fill-rule:evenodd;clip-rule:evenodd;stroke-linejoin:round;stroke-miterlimit:2;">
    <g>
        <path d="M486.4,384.444L388.8,286.844C379.058,277.106 363.03,277.106 353.288,286.844L311.916,328.216C303.238,336.927 302.163,350.792 309.396,360.736L289.168,380.96C276.295,393.802 255.145,393.802 242.272,380.96L131.04,269.728C118.198,256.855 118.198,235.705 131.04,222.832L151.264,202.604C161.203,209.854 175.081,208.778 183.784,200.084L225.164,158.704C234.9,148.96 234.9,132.932 225.164,123.188L127.556,25.6C122.849,20.892 116.457,18.244 109.8,18.244C103.143,18.244 96.751,20.892 92.044,25.6L50.66,66.96C41.321,76.335 40.906,91.562 49.72,101.432L28.844,158.428C5.735,221.939 21.506,293.399 69.2,341.284L170.716,442.8C218.586,490.522 290.066,506.293 353.572,483.144L410.568,462.268C420.43,471.103 435.676,470.685 445.04,461.324L486.4,419.96C491.108,415.252 493.756,408.86 493.756,402.202C493.756,395.544 491.108,389.152 486.4,384.444ZM60.56,76.86L101.944,35.48C106.255,31.173 113.345,31.173 117.656,35.48L215.256,133.08C219.563,137.392 219.563,144.484 215.256,148.796L173.884,190.18C169.569,194.481 162.483,194.481 158.168,190.18L156,188L60.564,92.576C56.262,88.262 56.261,81.176 60.56,76.86ZM348.752,470C290.355,491.25 224.65,476.753 180.616,432.904L79.084,331.384C35.239,287.348 20.747,221.642 42,163.248L60.604,112.4L141.128,192.944L121.128,212.944C102.857,231.247 102.857,261.333 121.128,279.636L232.376,390.86C250.679,409.131 280.765,409.131 299.068,390.86L319.068,370.86L399.6,451.396L348.752,470ZM476.52,410.048L435.14,451.424C430.825,455.725 423.739,455.725 419.424,451.424L324,356.02L321.808,353.832C317.507,349.517 317.507,342.431 321.808,338.116L363.2,296.736C367.511,292.429 374.601,292.429 378.912,296.736L476.512,394.336C480.819,398.648 480.819,405.74 476.512,410.052L476.52,410.048Z" style="fill:rgb(251,196,119);fill-rule:nonzero;stroke:rgb(251,196,119);stroke-width:1px;"/>
        <path d="M182.34,143.34C183.652,144.652 185.434,145.39 187.29,145.39C191.13,145.39 194.29,142.23 194.29,138.39C194.29,136.534 193.552,134.752 192.24,133.44L165.872,107.076C164.56,105.764 162.779,105.026 160.924,105.026C157.085,105.026 153.926,108.185 153.926,112.024C153.926,113.879 154.664,115.66 155.976,116.972L182.34,143.34Z" style="fill:rgb(251,196,119);fill-rule:nonzero;stroke:rgb(251,196,119);stroke-width:1px;"/>
        <path d="M137.66,98.66C138.972,99.972 140.754,100.71 142.61,100.71C146.45,100.71 149.61,97.55 149.61,93.71C149.61,91.854 148.872,90.072 147.56,88.76L136.516,77.72C135.198,76.355 133.379,75.584 131.482,75.584C127.642,75.584 124.482,78.744 124.482,82.584C124.482,84.482 125.254,86.301 126.62,87.62L137.66,98.66Z" style="fill:rgb(251,196,119);fill-rule:nonzero;"/>
    </g>
</svg>
