<?xml version="1.0" encoding="UTF-8" standalone="no"?>
<!DOCTYPE svg PUBLIC "-//W3C//DTD SVG 1.1//EN" "http://www.w3.org/Graphics/SVG/1.1/DTD/svg11.dtd">
<svg width="100%" height="100%" viewBox="0 0 512 512" version="1.1" xmlns="http://www.w3.org/2000/svg" xmlns:xlink="http://www.w3.org/1999/xlink" xml:space="preserve" xmlns:serif="http://www.serif.com/" style="fill-rule:evenodd;clip-rule:evenodd;stroke-linejoin:round;stroke-miterlimit:2;">
    <g>
        <g>
            <path d="M128,159.234L16,159.234C8.864,159.234 2.624,163.938 0.64,170.786C-1.344,177.666 1.44,184.994 7.488,188.77C7.616,188.866 18.56,196.002 27.04,208.994C9.536,231.234 0,258.562 0,287.234C0,357.826 57.408,415.234 128,415.234C198.592,415.234 256,357.826 256,287.234C256,216.642 198.592,159.234 128,159.234ZM128,383.234C75.072,383.234 32,340.162 32,287.234C32,262.85 41.248,239.714 57.984,222.114C62.496,217.378 63.68,210.434 60.992,204.482C58.816,199.682 56.32,195.234 53.664,191.234L128,191.234C180.928,191.234 224,234.306 224,287.234C224,340.162 180.928,383.234 128,383.234Z" style="fill:rgb(251,196,119);fill-rule:nonzero;"/>
        </g>
    </g>
    <g>
        <g>
            <path d="M301.536,338.306C294.4,333.154 284.416,334.626 279.168,341.858L256.832,372.642L232.48,341.41C227.04,334.434 216.96,333.154 210.016,338.626C203.072,344.066 201.824,354.114 207.264,361.09L244.704,409.09C247.744,412.962 252.384,415.234 257.312,415.234L257.6,415.234C262.624,415.138 267.328,412.706 270.24,408.642L305.056,360.642C310.24,353.506 308.704,343.49 301.536,338.306Z" style="fill:rgb(251,196,119);fill-rule:nonzero;"/>
        </g>
    </g>
    <g>
        <g>
            <path d="M426.784,163.426C329.44,74.562 182.56,74.53 85.216,163.426C78.688,169.378 78.208,179.49 84.192,186.018C90.144,192.578 100.256,192.994 106.784,187.042C191.872,109.378 320.16,109.378 405.216,187.042C408.288,189.858 412.16,191.234 416,191.234C420.352,191.234 424.672,189.474 427.808,186.018C433.792,179.49 433.312,169.378 426.784,163.426Z" style="fill:rgb(251,196,119);fill-rule:nonzero;"/>
        </g>
    </g>
    <g>
        <g>
            <path d="M128,223.234C92.704,223.234 64,251.938 64,287.234C64,322.53 92.704,351.234 128,351.234C163.296,351.234 192,322.53 192,287.234C192,251.938 163.296,223.234 128,223.234ZM128,319.234C110.368,319.234 96,304.898 96,287.234C96,269.602 110.368,255.234 128,255.234C145.632,255.234 160,269.602 160,287.234C160,304.898 145.632,319.234 128,319.234Z" style="fill:rgb(251,196,119);fill-rule:nonzero;"/>
        </g>
    </g>
    <g>
        <g>
            <path d="M128.64,271.234L128.32,271.234C119.488,271.234 112.48,278.402 112.48,287.234C112.48,296.066 119.808,303.234 128.64,303.234C137.472,303.234 144.64,296.066 144.64,287.234C144.64,278.402 137.472,271.234 128.64,271.234Z" style="fill:rgb(251,196,119);fill-rule:nonzero;"/>
        </g>
    </g>
    <g>
        <g>
            <path d="M484.928,208.994C493.408,196.034 504.416,188.802 504.512,188.77C510.56,184.962 513.344,177.634 511.36,170.786C509.408,163.938 503.136,159.234 496,159.234L384,159.234C313.408,159.234 256,216.642 256,287.234C256,357.826 313.408,415.234 384,415.234C454.592,415.234 512,357.826 512,287.234C512,258.594 502.464,231.234 484.928,208.994ZM384,383.234C331.072,383.234 288,340.162 288,287.234C288,234.306 331.072,191.234 384,191.234L458.336,191.234C455.68,195.234 453.184,199.682 451.008,204.482C448.352,210.434 449.504,217.41 454.016,222.114C470.784,239.746 480,262.85 480,287.234C480,340.162 436.928,383.234 384,383.234Z" style="fill:rgb(251,196,119);fill-rule:nonzero;"/>
        </g>
    </g>
    <g>
        <g>
            <path d="M384,223.234C348.704,223.234 320,251.938 320,287.234C320,322.53 348.704,351.234 384,351.234C419.296,351.234 448,322.53 448,287.234C448,251.938 419.296,223.234 384,223.234ZM384,319.234C366.336,319.234 352,304.898 352,287.234C352,269.602 366.336,255.234 384,255.234C401.664,255.234 416,269.602 416,287.234C416,304.898 401.664,319.234 384,319.234Z" style="fill:rgb(251,196,119);fill-rule:nonzero;"/>
        </g>
    </g>
    <g>
        <g>
            <path d="M384.64,271.234L384.32,271.234C375.488,271.234 368.48,278.402 368.48,287.234C368.48,296.066 375.84,303.234 384.64,303.234C393.472,303.234 400.64,296.066 400.64,287.234C400.64,278.402 393.472,271.234 384.64,271.234Z" style="fill:rgb(251,196,119);fill-rule:nonzero;"/>
        </g>
    </g>
</svg>
